<mxfile host="app.diagrams.net" modified="2023-04-29T10:42:42.485Z" agent="Mozilla/5.0 (Windows NT 10.0; Win64; x64) AppleWebKit/537.36 (KHTML, like Gecko) Chrome/112.0.0.0 Safari/537.36" etag="p6h0pqQY_B2kxKoLOrSl" version="21.2.1" type="device">
  <diagram name="Страница 1" id="fR-vpfA4sSKa3ajIgwwd">
    <mxGraphModel dx="714" dy="795" grid="1" gridSize="10" guides="1" tooltips="1" connect="1" arrows="1" fold="1" page="1" pageScale="1" pageWidth="827" pageHeight="1169" math="0" shadow="0">
      <root>
        <mxCell id="0" />
        <mxCell id="1" parent="0" />
        <mxCell id="4ZE3DG_4ugKtBtaC3NJ1-10" value="&lt;br&gt;&lt;span style=&quot;color: rgb(0, 0, 0); font-family: Helvetica; font-size: 11px; font-style: normal; font-variant-ligatures: normal; font-variant-caps: normal; font-weight: 400; letter-spacing: normal; orphans: 2; text-align: center; text-indent: 0px; text-transform: none; widows: 2; word-spacing: 0px; -webkit-text-stroke-width: 0px; background-color: rgb(255, 255, 255); text-decoration-thickness: initial; text-decoration-style: initial; text-decoration-color: initial; float: none; display: inline !important;&quot;&gt;данные бизнес задачи&lt;/span&gt;&lt;br style=&quot;border-color: var(--border-color); color: rgb(0, 0, 0); font-family: Helvetica; font-size: 11px; font-style: normal; font-variant-ligatures: normal; font-variant-caps: normal; font-weight: 400; letter-spacing: normal; orphans: 2; text-align: center; text-indent: 0px; text-transform: none; widows: 2; word-spacing: 0px; -webkit-text-stroke-width: 0px; text-decoration-thickness: initial; text-decoration-style: initial; text-decoration-color: initial;&quot;&gt;&lt;span style=&quot;color: rgb(0, 0, 0); font-family: Helvetica; font-size: 11px; font-style: normal; font-variant-ligatures: normal; font-variant-caps: normal; font-weight: 400; letter-spacing: normal; orphans: 2; text-align: center; text-indent: 0px; text-transform: none; widows: 2; word-spacing: 0px; -webkit-text-stroke-width: 0px; background-color: rgb(255, 255, 255); text-decoration-thickness: initial; text-decoration-style: initial; text-decoration-color: initial; float: none; display: inline !important;&quot;&gt;по учету спецодежды&lt;/span&gt;&lt;br&gt;" style="edgeStyle=orthogonalEdgeStyle;rounded=0;orthogonalLoop=1;jettySize=auto;html=1;entryX=0.798;entryY=-0.013;entryDx=0;entryDy=0;entryPerimeter=0;" edge="1" parent="1">
          <mxGeometry x="0.0268" y="59" relative="1" as="geometry">
            <mxPoint x="460.0000000000001" y="450" as="sourcePoint" />
            <mxPoint x="460.76" y="509.2199999999998" as="targetPoint" />
            <Array as="points">
              <mxPoint x="460" y="480" />
              <mxPoint x="461" y="480" />
            </Array>
            <mxPoint as="offset" />
          </mxGeometry>
        </mxCell>
        <mxCell id="4ZE3DG_4ugKtBtaC3NJ1-1" value="" style="rounded=1;whiteSpace=wrap;html=1;" vertex="1" parent="1">
          <mxGeometry x="260" y="240" width="330" height="210" as="geometry" />
        </mxCell>
        <mxCell id="4ZE3DG_4ugKtBtaC3NJ1-7" value="Данные спецодежды&lt;br&gt;и её бизнес процессов" style="edgeStyle=orthogonalEdgeStyle;rounded=0;orthogonalLoop=1;jettySize=auto;html=1;entryX=1;entryY=0.75;entryDx=0;entryDy=0;" edge="1" parent="1" source="4ZE3DG_4ugKtBtaC3NJ1-2" target="4ZE3DG_4ugKtBtaC3NJ1-4">
          <mxGeometry x="-0.0769" y="15" relative="1" as="geometry">
            <Array as="points">
              <mxPoint x="230" y="365" />
              <mxPoint x="230" y="365" />
            </Array>
            <mxPoint as="offset" />
          </mxGeometry>
        </mxCell>
        <mxCell id="4ZE3DG_4ugKtBtaC3NJ1-2" value="Вести учет спецодежды,&lt;br&gt;оформление бизнес-процессов&lt;br&gt;спецодежды" style="rounded=0;whiteSpace=wrap;html=1;" vertex="1" parent="1">
          <mxGeometry x="260" y="290" width="330" height="110" as="geometry" />
        </mxCell>
        <mxCell id="4ZE3DG_4ugKtBtaC3NJ1-3" value="АРМ с клиентом&lt;br&gt;СУС" style="text;html=1;align=center;verticalAlign=middle;resizable=0;points=[];autosize=1;strokeColor=none;fillColor=none;" vertex="1" parent="1">
          <mxGeometry x="370" y="400" width="110" height="40" as="geometry" />
        </mxCell>
        <mxCell id="4ZE3DG_4ugKtBtaC3NJ1-5" value="бизнес задача&lt;br&gt;по учету спецодежды" style="edgeStyle=orthogonalEdgeStyle;rounded=0;orthogonalLoop=1;jettySize=auto;html=1;entryX=0;entryY=0.5;entryDx=0;entryDy=0;" edge="1" parent="1" source="4ZE3DG_4ugKtBtaC3NJ1-4" target="4ZE3DG_4ugKtBtaC3NJ1-2">
          <mxGeometry x="-0.0769" y="15" relative="1" as="geometry">
            <Array as="points">
              <mxPoint x="190" y="345" />
              <mxPoint x="190" y="345" />
            </Array>
            <mxPoint as="offset" />
          </mxGeometry>
        </mxCell>
        <mxCell id="4ZE3DG_4ugKtBtaC3NJ1-4" value="Ответственный за&lt;br&gt;учет спецодежды" style="rounded=0;whiteSpace=wrap;html=1;" vertex="1" parent="1">
          <mxGeometry x="10" y="320" width="120" height="60" as="geometry" />
        </mxCell>
        <mxCell id="4ZE3DG_4ugKtBtaC3NJ1-20" value="Реляционный ответ" style="edgeStyle=orthogonalEdgeStyle;rounded=0;orthogonalLoop=1;jettySize=auto;html=1;" edge="1" parent="1" source="4ZE3DG_4ugKtBtaC3NJ1-6">
          <mxGeometry relative="1" as="geometry">
            <mxPoint x="380" y="790" as="targetPoint" />
            <Array as="points">
              <mxPoint x="380" y="790" />
            </Array>
          </mxGeometry>
        </mxCell>
        <mxCell id="4ZE3DG_4ugKtBtaC3NJ1-6" value="БД СУС" style="rounded=0;whiteSpace=wrap;html=1;" vertex="1" parent="1">
          <mxGeometry x="365" y="840" width="120" height="60" as="geometry" />
        </mxCell>
        <mxCell id="4ZE3DG_4ugKtBtaC3NJ1-11" value="компонент с данными&lt;br&gt;бизнес процессов спецодежды" style="edgeStyle=orthogonalEdgeStyle;rounded=0;orthogonalLoop=1;jettySize=auto;html=1;" edge="1" parent="1" source="4ZE3DG_4ugKtBtaC3NJ1-8">
          <mxGeometry y="40" relative="1" as="geometry">
            <mxPoint x="390" y="450" as="targetPoint" />
            <Array as="points">
              <mxPoint x="390" y="450" />
            </Array>
            <mxPoint as="offset" />
          </mxGeometry>
        </mxCell>
        <mxCell id="4ZE3DG_4ugKtBtaC3NJ1-15" value="Вызов соответствующего&lt;br&gt;метода сервиса" style="edgeStyle=orthogonalEdgeStyle;rounded=0;orthogonalLoop=1;jettySize=auto;html=1;entryX=0.792;entryY=-0.014;entryDx=0;entryDy=0;entryPerimeter=0;" edge="1" parent="1" source="4ZE3DG_4ugKtBtaC3NJ1-8" target="4ZE3DG_4ugKtBtaC3NJ1-13">
          <mxGeometry x="-0.1835" y="50" relative="1" as="geometry">
            <Array as="points">
              <mxPoint x="460" y="590" />
              <mxPoint x="460" y="590" />
            </Array>
            <mxPoint as="offset" />
          </mxGeometry>
        </mxCell>
        <mxCell id="4ZE3DG_4ugKtBtaC3NJ1-8" value="Сервер СУС&amp;nbsp; на Blazor" style="rounded=0;whiteSpace=wrap;html=1;" vertex="1" parent="1">
          <mxGeometry x="365" y="510" width="120" height="60" as="geometry" />
        </mxCell>
        <mxCell id="4ZE3DG_4ugKtBtaC3NJ1-16" value="бизнес модель (dto)&lt;br&gt;для представления в компоненте" style="edgeStyle=orthogonalEdgeStyle;rounded=0;orthogonalLoop=1;jettySize=auto;html=1;" edge="1" parent="1" source="4ZE3DG_4ugKtBtaC3NJ1-13">
          <mxGeometry x="-0.2" y="60" relative="1" as="geometry">
            <mxPoint x="390" y="570" as="targetPoint" />
            <Array as="points">
              <mxPoint x="390" y="570" />
            </Array>
            <mxPoint as="offset" />
          </mxGeometry>
        </mxCell>
        <mxCell id="4ZE3DG_4ugKtBtaC3NJ1-17" value="Linq запрос" style="edgeStyle=orthogonalEdgeStyle;rounded=0;orthogonalLoop=1;jettySize=auto;html=1;" edge="1" parent="1" source="4ZE3DG_4ugKtBtaC3NJ1-13">
          <mxGeometry relative="1" as="geometry">
            <mxPoint x="460" y="730" as="targetPoint" />
            <Array as="points">
              <mxPoint x="460" y="730" />
            </Array>
          </mxGeometry>
        </mxCell>
        <mxCell id="4ZE3DG_4ugKtBtaC3NJ1-13" value="Бизнес-логика" style="rounded=0;whiteSpace=wrap;html=1;direction=east;" vertex="1" parent="1">
          <mxGeometry x="365" y="620" width="120" height="60" as="geometry" />
        </mxCell>
        <mxCell id="4ZE3DG_4ugKtBtaC3NJ1-18" value="Модель данных" style="edgeStyle=orthogonalEdgeStyle;rounded=0;orthogonalLoop=1;jettySize=auto;html=1;" edge="1" parent="1" source="4ZE3DG_4ugKtBtaC3NJ1-14">
          <mxGeometry relative="1" as="geometry">
            <mxPoint x="380" y="680" as="targetPoint" />
            <Array as="points">
              <mxPoint x="380" y="680" />
            </Array>
          </mxGeometry>
        </mxCell>
        <mxCell id="4ZE3DG_4ugKtBtaC3NJ1-19" value="Sql запрос" style="edgeStyle=orthogonalEdgeStyle;rounded=0;orthogonalLoop=1;jettySize=auto;html=1;entryX=0.798;entryY=-0.007;entryDx=0;entryDy=0;entryPerimeter=0;" edge="1" parent="1" source="4ZE3DG_4ugKtBtaC3NJ1-14" target="4ZE3DG_4ugKtBtaC3NJ1-6">
          <mxGeometry relative="1" as="geometry">
            <Array as="points">
              <mxPoint x="461" y="815" />
            </Array>
          </mxGeometry>
        </mxCell>
        <mxCell id="4ZE3DG_4ugKtBtaC3NJ1-14" value="Доступ к данным" style="rounded=0;whiteSpace=wrap;html=1;direction=east;" vertex="1" parent="1">
          <mxGeometry x="365" y="730" width="120" height="60" as="geometry" />
        </mxCell>
      </root>
    </mxGraphModel>
  </diagram>
</mxfile>
